# AST/ASF file generated using VICON BodyLanguage
# -----------------------------------------------
:version 1.10
:name VICON
:units
  mass 1.0
  length 0.45
  angle deg
:documentation
   .ast/.asf automatically generated from VICON data using
   VICON BodyBuilder and BodyLanguage model FoxedUp or BRILLIANT.MOD
:root
   order TX TY TZ RX RY RZ
   axis XYZ
   position 0 0 0  
   orientation 0 0 0 
:bonedata
  begin
     id 1 
     name lhipjoint
     direction 0.710188 -0.616876 0.339259 
     length 2.5669 
     axis 0 0 0  XYZ
  end
  begin
     id 2 
     name lfemur
     direction 0.34202 -0.939693 0  
     length 7.12796  
     axis 0 0 20  XYZ
    dof rx ry rz
    limits (-160.0 20.0)
           (-70.0 70.0)
           (-60.0 70.0)
  end
  begin
     id 3 
     name ltibia
     direction 0.34202 -0.939693 0   
     length 7.58108   
     axis 0 0 20   XYZ
    dof rx
    limits (-10.0 170.0)
  end
  begin
     id 4 
     name lfoot
     direction 0.0669471 -0.183936 0.980656   
     length 2.17365   
     axis -90 7.62852e-016 20   XYZ
    dof rx rz
    limits (-45.0 90.0)
           (-70.0 20.0)
  end
  begin
     id 5 
     name ltoes
     direction 1.53508e-011 -4.21705e-011 1   
     length 1.09427   
     axis -90 7.62852e-016 20   XYZ
    dof rx
    limits (-90.0 20.0)
  end
  begin
     id 6 
     name rhipjoint
     direction -0.700191 -0.625589 0.34405   
     length 2.53115  
     axis 0 0 0  XYZ 
  end
  begin
     id 7 
     name rfemur
     direction -0.34202 -0.939693 0   
     length 7.33006   
     axis 0 0 -20   XYZ
    dof rx ry rz
    limits (-160.0 20.0)
           (-70.0 70.0)
           (-70.0 60.0)
  end
  begin
     id 8 
     name rtibia
     direction -0.34202 -0.939693 0   
     length 7.64926   
     axis 0 0 -20   XYZ
    dof rx
    limits (-10.0 170.0)
 end
 begin
     id 9 
     name rfoot
     direction -0.0688927 -0.189281 0.979503   
     length 2.20493  
     axis -90 -7.62852e-016 -20   XYZ
    dof rx rz
    limits (-45.0 90.0)
           (-20.0 70.0)
  end
  begin
     id 10 
     name rtoes
     direction -1.53567e-011 -4.21933e-011 1   
     length 1.10919   
     axis -90 -7.62852e-016 -20   XYZ
    dof rx
    limits (-90.0 20.0)
  end
  begin
     id 11 
     name lowerback
     direction -0.0167868 0.989873 -0.140959   
     length 2.14596   
     axis 0 0 0   XYZ
    dof rx ry rz
    limits (-20.0 45.0)
           (-30.0 30.0)
           (-30.0 30.0)
  end
  begin
     id 12 
     name upperback
     direction 0.0129109 0.998033 0.0613525   
     length 2.10457   
     axis 0 0 0   XYZ
    dof rx ry rz
    limits (-20.0 45.0)
           (-30.0 30.0)
           (-30.0 30.0)
  end
  begin
     id 13 
     name thorax
     direction 0.0177047 0.991119 0.131797   
     length 2.17652   
     axis 0 0 0   XYZ
    dof rx ry rz
    limits (-20.0 45.0)
           (-30.0 30.0)
           (-30.0 30.0)
  end
  begin
     id 14 
     name lowerneck
     direction -0.0336893 0.997548 0.0613464   
     length 1.8912   
     axis 0 0 0   XYZ
    dof rx ry rz
    limits (-20.0 45.0)
           (-30.0 30.0)
           (-30.0 30.0)
  end
  begin
     id 15 
     name upperneck
     direction 0.0435909 0.997179 -0.0611028   
     length 1.8829   
     axis 0 0 0   XYZ
    dof rx ry rz
    limits (-20.0 45.0)
           (-30.0 30.0)
           (-30.0 30.0)
  end
  begin
     id 16
     name head
     direction 0.0175076 0.999444 -0.0283782  
     length 1.93197  
     axis 0 0 0   XYZ
    dof rx ry rz
    limits (-20.0 45.0)
           (-30.0 30.0)
           (-30.0 30.0)
  end
  begin
     id 17 
     name lclavicle
     direction 0.919164 0.389875 0.0559876  
     length 3.60004  
     axis 0 0 0   XYZ
    dof ry rz
    limits (-20.0 10.0)
           (0.0 20.0)
  end
  begin
     id 18 
     name lhumerus
     direction 1 -4.48958e-011 6.89191e-027   
     length 5.43301   
     axis 180 -30 -90   XYZ
    dof rx ry rz
    limits (-60.0 90.0)
           (-90.0 90.0)
           (-90.0 90.0)
  end
  begin
     id 19
     name lradius
     direction 1 -4.4897e-011 3.24727e-027   
     length 3.15936   
     axis 180 -30 -90   XYZ
    dof rx
    limits (-10.0 170.0)
  end
  begin
     id 20
     name lwrist
     direction 1 -4.4897e-011 9.00228e-027   
     length 1.57968   
     axis -6.29373e-015 90 90   XYZ
    dof ry
    limits (-180.0 0.0)
 end
  begin
     id 21 
     name lhand
     direction 1 -4.48968e-011 1.80042e-026   
     length 0.712827   
     axis -1.14882e-014 90 90   XYZ
    dof rx rz
    limits (-90.0 90.0)
           (-45.0 45.0)
  end
  begin
     id 22 
     name lfingers
     direction 1 -4.49019e-011 3.60267e-026   
     length 0.574699   
     axis -2.29769e-014 90 90   XYZ
    dof rx
    limits (0.0 90.0)
  end
  begin
     id 23
     name lthumb
     direction 0.707107 -6.3498e-011 0.707107   
     length 0.825157   
     axis -90 45 5.37419e-014   XYZ
    dof rx rz
    limits (-45.0 45.0)
           (-45.0 45.0)
  end
  begin
     id 24 
     name rclavicle
     direction -0.890334 0.455305 -0.00132111   
     length 3.51494  
     axis 0 0 0   XYZ 
    dof ry rz
    limits (-10.0 20.0)
           (-20.0 0.0)
  end
  begin
     id 25 
     name rhumerus
     direction -1 -4.48967e-011 5.07175e-028  
     length 5.34194   
     axis 180 30 90   XYZ
    dof rx ry rz
    limits (-90.0 60.0)
           (-90.0 90.0)
           (-90.0 90.0)
  end
  begin
     id 26 
     name rradius
     direction -1 -4.48955e-011 3.30467e-027   
     length 3.19351   
     axis 180 30 90   XYZ
    dof rx
    limits (-10.0 170.0)
  end
  begin
     id 27 
     name rwrist
     direction -1 -4.48968e-011 9.00208e-027   
     length 1.59676   
     axis -6.29373e-015 -90 -90   XYZ
    dof ry
    limits (-180.0 0.0)
  end
  begin
     id 28
     name rhand
     direction -1 -4.49e-011 1.80099e-026   
     length 0.743862   
     axis -1.14882e-014 -90 -90   XYZ
    dof rx rz
    limits (-90.0 90.0)
           (-45.0 45.0)
  end
  begin
     id 29
     name rfingers
     direction -1 -4.49009e-011 3.6023e-026   
     length 0.599721   
     axis -2.29769e-014 -90 -90   XYZ
    dof rx
    limits (0.0 90.0)
  end
  begin
     id 30
     name rthumb
     direction -0.707107 -6.35025e-011 0.707107   
     length 0.861083   
     axis -90 -45 -5.37419e-014   XYZ
    dof rx rz
    limits (-45.0 45.0)
           (-45.0 45.0)
  end
:hierarchy
  begin
    root lhipjoint rhipjoint lowerback
    lhipjoint lfemur
    lfemur ltibia
    ltibia lfoot
    lfoot ltoes
    rhipjoint rfemur
    rfemur rtibia
    rtibia rfoot
    rfoot rtoes
    lowerback upperback
    upperback thorax
    thorax lowerneck lclavicle rclavicle
    lowerneck upperneck
    upperneck head
    lclavicle lhumerus
    lhumerus lradius
    lradius lwrist
    lwrist lhand lthumb
    lhand lfingers
    rclavicle rhumerus
    rhumerus rradius
    rradius rwrist
    rwrist rhand rthumb
    rhand rfingers
  end

#!OML:ASF H:\Martial Arts Walks\Project 1\Capture day 1\Session 1\male.ASF
:FULLY-SPECIFIED
:DEGREES
994
root -6.26106 12.5055 30.8827 -6.89464 76.311 -11.7151
lowerback 23.007 -2.61708 -2.73469
upperback 0.146907 -3.38969 5.04647
thorax -12.2849 -1.14603 8.43804
lowerneck 8.33424 -16.4335 -14.9668
upperneck -1.6449 -23.1764 19.3063
head 2.23284 -11.9454 7.48199
rclavicle -6.12257e-014 -2.38542e-015
rhumerus -18.9112 -3.26319 -46.9483
rradius 108.593
rwrist -17.2107
rhand -21.8732 -41.966
rfingers 7.12502
rthumb 4.53123 -71.8975
lclavicle -6.12257e-014 -2.38542e-015
lhumerus -20.8718 -56.2094 101.317
lradius 112.917
lwrist 20.1012
lhand -8.13636 5.11309
lfingers 7.12502
lthumb 17.7776 34.3205
rfemur -54.3083 -18.4615 4.63125
rtibia 85.4409
rfoot -32.6669 9.17358
rtoes -31.5759
lfemur -43.0861 30.8368 7.19789
ltibia 85.6804
lfoot -30.7986 8.41545
ltoes -19.9497
995
root -6.25 12.488 30.9038 -6.22619 76.3564 -11.0938
lowerback 22.9317 -2.77338 -2.80827
upperback 0.136103 -3.62345 5.00534
thorax -12.2158 -1.25658 8.5002
lowerneck 8.09962 -16.3248 -15.1534
upperneck -1.51028 -23.0437 19.36
head 2.31535 -11.866 7.50567
rclavicle 1.41137e-014 1.19271e-014
rhumerus -18.7768 -3.3302 -47.1769
rradius 108.126
rwrist -17.5359
rhand -21.8916 -42.2719
rfingers 7.12502
rthumb 4.51342 -72.2038
lclavicle 1.41137e-014 1.19271e-014
lhumerus -20.3514 -56.1677 100.904
lradius 112.843
lwrist 20.3176
lhand -8.42294 5.32932
lfingers 7.12502
lthumb 17.5019 34.5615
rfemur -54.4909 -18.5838 4.53039
rtibia 85.7693
rfoot -32.812 9.17416
rtoes -31.4638
lfemur -43.1126 30.8069 7.16438
ltibia 85.7276
lfoot -30.8232 8.32884
ltoes -20.3267
996
root -6.23999 12.4712 30.9245 -5.8188 76.4339 -10.7429
lowerback 22.8421 -2.71006 -2.74432
upperback 0.0861529 -3.54238 4.88152
thorax -12.2488 -1.22702 8.28932
lowerneck 8.27732 -16.4238 -14.9681
upperneck -1.65051 -23.1623 19.4537
head 2.25712 -11.9383 7.5201
rclavicle 6.16232e-015 -1.35174e-014
rhumerus -19.3406 -3.85986 -47.2253
rradius 107.751
rwrist -17.5906
rhand -21.902 -42.5308
rfingers 7.12502
rthumb 4.50337 -72.463
lclavicle 6.16232e-015 -1.35174e-014
lhumerus -19.9936 -56.8472 100.832
lradius 112.677
lwrist 20.5428
lhand -8.48312 5.39218
lfingers 7.12502
lthumb 17.4439 34.6295
rfemur -54.6526 -18.6718 4.47493
rtibia 86.0889
rfoot -32.9005 9.26312
rtoes -31.1183
lfemur -43.2062 30.7591 7.14092
ltibia 85.8008
lfoot -30.8109 8.43261
ltoes -20.6893
997
root -6.22943 12.4547 30.9443 -5.24569 76.4341 -10.1996
lowerback 22.32 -2.50587 -3.41932
upperback 0.341502 -3.39724 5.24393
thorax -11.6225 -1.14356 8.99196
lowerneck 8.19766 -16.5065 -15.1789
upperneck -2.04268 -23.2433 19.3888
head 2.1852 -11.9814 7.52403
rclavicle 2.70347e-014 -1.27222e-014
rhumerus -19.0108 -4.3081 -46.6277
rradius 107.135
rwrist -17.788
rhand -21.9254 -42.6781
rfingers 7.12502
rthumb 4.48084 -72.6107
lclavicle 2.70347e-014 -1.27222e-014
lhumerus -18.489 -57.0719 100.493
lradius 112.415
lwrist 20.6345
lhand -8.48095 5.60686
lfingers 7.12502
lthumb 17.446 34.844
rfemur -54.8318 -18.7441 4.417
rtibia 86.411
rfoot -33.0861 9.08589
rtoes -31.3218
lfemur -43.1913 30.8335 7.12342
ltibia 85.86
lfoot -30.8701 8.4493
ltoes -20.9806
998
root -6.22153 12.4361 30.9603 -4.9027 76.4479 -9.87566
lowerback 22.4468 -2.62871 -3.22855
upperback 0.223236 -3.53984 5.04815
thorax -11.829 -1.21647 8.71701
lowerneck 8.204 -16.4306 -15.2201
upperneck -1.82538 -23.1718 19.4486
head 2.24793 -11.9427 7.54618
rclavicle -6.14245e-014 1.43125e-014
rhumerus -19.3094 -4.35533 -47.0701
rradius 106.661
rwrist -17.7189
rhand -21.9917 -42.8443
rfingers 7.12502
rthumb 4.4168 -72.7782
lclavicle -6.14245e-014 1.43125e-014
lhumerus -18.6059 -57.146 100.353
lradius 112.399
lwrist 20.6213
lhand -8.56288 5.51317
lfingers 7.12502
lthumb 17.3672 34.7573
rfemur -55.0052 -18.8355 4.39262
rtibia 86.7202
rfoot -33.2413 8.93034
rtoes -31.5308
lfemur -43.2195 30.9354 7.15749
ltibia 85.9423
lfoot -30.9946 8.25939
ltoes -21.0015
999
root -6.21241 12.4184 30.9779 -4.34455 76.3799 -9.36672
lowerback 22.4945 -2.70466 -2.66979
upperback 0.0949609 -3.56818 4.54042
thorax -12.067 -1.27183 7.82593
lowerneck 8.2226 -16.5052 -14.8616
upperneck -1.55724 -23.2716 19.5525
head 2.3122 -11.9898 7.5128
rclavicle 7.27552e-014 -3.49861e-014
rhumerus -20.0047 -4.80534 -47.7144
rradius 106.154
rwrist -17.9071
rhand -22.0914 -42.8439
rfingers 7.12502
rthumb 4.32048 -72.7798
lclavicle 7.27552e-014 -3.49861e-014
lhumerus -18.8602 -57.6959 100.013
lradius 112.362
lwrist 20.5524
lhand -8.40653 5.29129
lfingers 7.12502
lthumb 17.5176 34.522
rfemur -55.2467 -18.8337 4.3549
rtibia 87.0211
rfoot -33.3143 8.98709
rtoes -31.2666
lfemur -43.2004 31.1506 7.14829
ltibia 85.9983
lfoot -31.0673 8.30758
ltoes -21.2117
1000
root -6.2022 12.4023 30.9924 -3.89733 76.2944 -8.98378
lowerback 22.3865 -2.69914 -2.66835
upperback 0.0640321 -3.56933 4.48936
thorax -12.0455 -1.27644 7.75934
lowerneck 8.19799 -16.452 -14.9852
upperneck -1.47078 -23.2211 19.5869
head 2.3516 -11.9619 7.53703
rclavicle 1.19271e-014 -4.45278e-014
rhumerus -20.1222 -4.94812 -47.8606
rradius 105.582
rwrist -18.0412
rhand -22.1425 -42.9421
rfingers 7.12502
rthumb 4.27118 -72.879
lclavicle 1.19271e-014 -4.45278e-014
lhumerus -18.3465 -57.8433 99.7651
lradius 112.166
lwrist 20.3902
lhand -8.33142 5.39049
lfingers 7.12502
lthumb 17.5899 34.6148
rfemur -55.4845 -18.8523 4.35962
rtibia 87.2966
rfoot -33.4392 8.82534
rtoes -31.3931
lfemur -43.1692 31.3405 7.18039
ltibia 86.0536
lfoot -31.1857 8.28925
ltoes -21.4185
1001
root -6.19259 12.3881 31.0045 -3.22831 76.1961 -8.32299
lowerback 22.3202 -2.61474 -2.72498
upperback 0.0630269 -3.49138 4.36648
thorax -12.0254 -1.24404 7.62101
lowerneck 8.22826 -16.4868 -14.8398
upperneck -1.50457 -23.2519 19.5841
head 2.3249 -11.9796 7.52016
rclavicle -5.38706e-014 1.15295e-014
rhumerus -20.3755 -5.24734 -47.995
rradius 105
rwrist -18.241
rhand -22.2045 -43.0111
rfingers 7.12502
rthumb 4.21126 -72.9492
lclavicle -5.38706e-014 1.15295e-014
lhumerus -17.9379 -58.1429 99.5276
lradius 112.007
lwrist 20.1738
lhand -8.43341 5.32315
lfingers 7.12502
lthumb 17.4918 34.5562
rfemur -55.6562 -18.8665 4.25395
rtibia 87.5406
rfoot -33.5766 8.76024
rtoes -31.4839
lfemur -43.0362 31.3216 7.14869
ltibia 86.0803
lfoot -31.2465 8.49148
ltoes -21.66
